<svg xmlns="http://www.w3.org/2000/svg" fill="none" viewBox="0 0 48 48" id="Checkbox--Streamline-Ionic-Filled" height="48" width="48"><desc>Checkbox Streamline Icon: https://streamlinehq.com</desc><path fill="#646464" d="M40.283 0.48H7.7169c-1.9187 0.0021 -3.7582 0.7652 -5.1149 2.1219C1.2452 3.9587 0.4821 5.7982 0.48 7.7169V40.283c0.0021 1.9188 0.7652 3.7583 2.122 5.115 1.3567 1.3568 3.1962 2.1198 5.1149 2.122H40.283c1.9187 -0.0022 3.7583 -0.7652 5.115 -2.122 1.3568 -1.3567 2.1198 -3.1962 2.122 -5.115V7.7169c-0.0022 -1.9187 -0.7652 -3.7582 -2.122 -5.1149C44.0413 1.2452 42.2017 0.4821 40.283 0.48Zm-4.0425 15.6374L21.043 34.2097c-0.1667 0.1985 -0.3741 0.3589 -0.6082 0.4704 -0.2342 0.1113 -0.4894 0.1712 -0.7487 0.1753h-0.0305c-0.2537 -0.0002 -0.5043 -0.0535 -0.7359 -0.1567 -0.2317 -0.1033 -0.4391 -0.2542 -0.6086 -0.4427l-6.5132 -7.2369c-0.1655 -0.1755 -0.2942 -0.3822 -0.3785 -0.608 -0.0843 -0.2259 -0.1227 -0.4664 -0.1128 -0.7073 0.0099 -0.241 0.0678 -0.4774 0.1703 -0.6956 0.1028 -0.2183 0.2479 -0.4138 0.4271 -0.575 0.1792 -0.1614 0.3889 -0.2852 0.6166 -0.3642 0.2278 -0.0792 0.4692 -0.112 0.7098 -0.0965 0.2406 0.0155 0.4757 0.079 0.6915 0.1866 0.2157 0.1077 0.4078 0.2572 0.5649 0.4402l5.1212 5.69 13.8622 -16.4991c0.3109 -0.3594 0.7508 -0.5822 1.2246 -0.6199 0.4739 -0.0377 0.9434 0.1125 1.3074 0.4183 0.364 0.3056 0.5929 0.7422 0.6375 1.2155 0.0447 0.4732 -0.0988 0.9449 -0.3992 1.3133Z" stroke-width="1"></path></svg>