<svg xmlns="http://www.w3.org/2000/svg" fill="none" viewBox="0 0 48 48" id="Funnel--Streamline-Ionic-Filled" height="48" width="48"><desc>Funnel Streamline Icon: https://streamlinehq.com</desc><path fill="#646464" d="M27.7494 43.499c-0.2407 -0.0002 -0.4796 -0.0391 -0.7078 -0.1153l-7.514 -2.5003c-0.4469 -0.1502 -0.835 -0.4373 -1.1093 -0.8208 -0.2744 -0.3833 -0.4209 -0.8434 -0.4188 -1.3148V27.572c-0.002 -0.0045 -0.0049 -0.0086 -0.0084 -0.0122L2.18034 9.14383c-0.35058 -0.40843 -0.5766 -0.90888 -0.65122 -1.44194 -0.07463 -0.53305 0.00527 -1.07633 0.23023 -1.56533 0.22495 -0.48899 0.5855 -0.90316 1.03884 -1.19334 0.45334 -0.29018 0.98043 -0.44418 1.51869 -0.44371H43.6867c0.5382 -0.00047 1.0653 0.15353 1.5186 0.44371 0.4534 0.29018 0.8139 0.70435 1.0388 1.19334 0.225 0.489 0.3049 1.03228 0.2303 1.56533 -0.0746 0.53306 -0.3007 1.03351 -0.6512 1.44194L30.0078 27.5617c-0.0033 0.0038 -0.0061 0.0079 -0.0084 0.0122V41.249c0.0008 0.2957 -0.0568 0.5887 -0.1695 0.862 -0.1128 0.2734 -0.2786 0.5218 -0.4876 0.7309 -0.2092 0.2092 -0.4575 0.3748 -0.7309 0.4876 -0.2734 0.1128 -0.5663 0.1703 -0.862 0.1695Z" stroke-width="1"></path></svg>