<svg xmlns="http://www.w3.org/2000/svg" width="24" height="24" viewBox="0 0 24 24" id="folder-open">
  <path fill="#f59e0b" d="M20,8v1L2,19V5c0-1.1046,.8954-2,2-2h4.9296c.6687,0,1.2932,.3342,1.6641,.8906l1.4062,2.1094h6c1.1046,0,2,.8954,2,2Z"></path>
  <path fill="#fcd34d" d="M21.8958,11.6324l-2.6666,8c-.2723,.8167-1.0365,1.3676-1.8974,1.3676H4.0015c-1.3651,0-2.329-1.3374-1.8973-2.6324l2.6666-8c.2723-.8167,1.0365-1.3676,1.8974-1.3676h13.3303c1.3651,0,2.329,1.3374,1.8973,2.6324Z"></path>
  <path fill="#0f172a" d="M1.9736,20.4619c.4756,.6592,1.2144,1.0381,2.0278,1.0381h13.3306c1.0776,0,2.0308-.6865,2.3711-1.709l2.667-8.0005c.2573-.7715,.1323-1.5923-.3433-2.2524-.3751-.5203-.9167-.8567-1.5269-.9794v-.5587c0-1.3784-1.1216-2.5-2.5-2.5h-5.7324l-1.2578-1.8867c-.4648-.6973-1.2422-1.1133-2.0801-1.1133H4c-1.3784,0-2.5,1.1216-2.5,2.5v14c0,.0308,.0121,.0575,.0175,.0867,.0159,.4865,.1589,.963,.4562,1.3752ZM19.9985,9.5c.4883,0,.9316,.2271,1.2168,.623,.2856,.396,.3608,.8882,.2065,1.3511l-2.6675,8.0005c-.2041,.6133-.7759,1.0254-1.4224,1.0254H4.0015c-.4878,0-.9316-.2275-1.2168-.623-.2856-.3955-.3608-.8887-.2065-1.3516l2.6675-8c.2041-.6133,.7759-1.0254,1.4224-1.0254h13.3306ZM2.5,5c0-.8271,.6729-1.5,1.5-1.5h4.9297c.5024,0,.9692,.2495,1.248,.668l1.4062,2.1094c.0928,.1392,.249,.2227,.416,.2227h6c.8271,0,1.5,.6729,1.5,1.5v.5H6.668c-1.0781,0-2.0308,.687-2.3711,1.7095l-1.7969,5.3896V5Z"></path>
</svg>
